<?xml version="1.0" encoding="UTF-8" standalone="no"?>
<!-- Created with Inkscape (http://www.inkscape.org/) -->

<svg
   xmlns:dc="http://purl.org/dc/elements/1.1/"
   xmlns:cc="http://creativecommons.org/ns#"
   xmlns:rdf="http://www.w3.org/1999/02/22-rdf-syntax-ns#"
   xmlns:svg="http://www.w3.org/2000/svg"
   xmlns="http://www.w3.org/2000/svg"
   xmlns:sodipodi="http://sodipodi.sourceforge.net/DTD/sodipodi-0.dtd"
   xmlns:inkscape="http://www.inkscape.org/namespaces/inkscape"
   width="1100"
   height="300"
   viewBox="0 0 1100 299.99999"
   id="svg4174"
   version="1.1"
   inkscape:version="0.91 r13725"
   inkscape:export-filename="C:\Users\Alufoil\Pictures\TELCO logo\TD_logo_final_white_big.png"
   inkscape:export-xdpi="120"
   inkscape:export-ydpi="120"
   sodipodi:docname="T_logo_new_left_3.svg">
  <defs
     id="defs4176">
    <clipPath
       id="clipPath4729"
       clipPathUnits="userSpaceOnUse">
      <path
         inkscape:connector-curvature="0"
         id="path4731"
         d="M 0,304 556,304 556,0 0,0 0,304 Z" />
    </clipPath>
  </defs>
  <sodipodi:namedview
     id="base"
     pagecolor="#ffffff"
     bordercolor="#000000"
     borderopacity="1"
     inkscape:pageopacity="1"
     inkscape:pageshadow="2"
     inkscape:zoom="1"
     inkscape:cx="445.01052"
     inkscape:cy="203.02662"
     inkscape:document-units="px"
     inkscape:current-layer="layer1"
     showgrid="false"
     showguides="true"
     inkscape:guide-bbox="true"
     inkscape:window-width="1920"
     inkscape:window-height="1017"
     inkscape:window-x="-8"
     inkscape:window-y="-8"
     inkscape:window-maximized="1"
     units="px" />
  <metadata
     id="metadata4179">
    <rdf:RDF>
      <cc:Work
         rdf:about="">
        <dc:format>image/svg+xml</dc:format>
        <dc:type
           rdf:resource="http://purl.org/dc/dcmitype/StillImage" />
        <dc:title></dc:title>
      </cc:Work>
    </rdf:RDF>
  </metadata>
  <g
     inkscape:label="Vrstva 1"
     inkscape:groupmode="layer"
     id="layer1"
     transform="translate(0,-752.36222)">
    <g
       style="font-style:normal;font-weight:normal;font-size:40px;line-height:100%;font-family:sans-serif;letter-spacing:0px;word-spacing:0px;fill:#000000;fill-opacity:1;stroke:none;stroke-width:1px;stroke-linecap:butt;stroke-linejoin:miter;stroke-opacity:1"
       id="text4759">
      <path
         d="m 408.23807,883.54816 0,-61.24878 -18.18238,0 0,-13.73291 52.56958,0 0,13.73291 -18.29223,0 0,61.24878 -16.09497,0 z"
         style="font-style:normal;font-variant:normal;font-weight:800;font-stretch:normal;font-size:112.5px;line-height:100%;font-family:'TeleGrotesk Headline Ultra';-inkscape-font-specification:'TeleGrotesk Headline Ultra Ultra-Bold';letter-spacing:0px;fill:#e20074;fill-opacity:1;stroke:none;stroke-opacity:1"
         id="path4151" />
      <path
         d="m 451.57913,883.54816 0,-74.98169 47.84546,0 0,13.73291 -31.75049,0 0,16.04004 29.00391,0 0,13.07373 -29.00391,0 0,18.4021 32.40967,0 0,13.73291 -48.50464,0 z"
         style="font-style:normal;font-variant:normal;font-weight:800;font-stretch:normal;font-size:112.5px;line-height:100%;font-family:'TeleGrotesk Headline Ultra';-inkscape-font-specification:'TeleGrotesk Headline Ultra Ultra-Bold';letter-spacing:0px;fill:#e20074;fill-opacity:1;stroke:none;stroke-opacity:1"
         id="path4153" />
      <path
         d="m 511.12503,883.54816 0,-74.98169 16.09497,0 0,61.02905 29.44336,0 0,13.95264 -45.53833,0 z"
         style="font-style:normal;font-variant:normal;font-weight:800;font-stretch:normal;font-size:112.5px;line-height:100%;font-family:'TeleGrotesk Headline Ultra';-inkscape-font-specification:'TeleGrotesk Headline Ultra Ultra-Bold';letter-spacing:0px;fill:#e20074;fill-opacity:1;stroke:none;stroke-opacity:1"
         id="path4155" />
      <path
         d="m 608.24417,854.48932 16.09497,0 q -0.8789,11.92016 -6.70166,19.94018 -7.96509,10.9314 -22.41211,10.9314 -13.67798,0 -21.698,-9.39331 -9.7229,-11.48071 -9.7229,-29.71802 0,-17.90771 9.39331,-29.11377 8.62427,-10.27221 22.41211,-10.27221 14.77662,0 23.01636,11.86523 4.66919,6.75659 5.27344,15.05127 l -15.93018,0.0549 q -0.71411,-4.39453 -2.36206,-7.14111 -3.51562,-6.09741 -10.21728,-6.09741 -7.47071,0 -11.42578,7.08618 -4.06495,7.36084 -4.06495,18.4021 0,11.20605 4.22974,18.67676 3.84522,6.86645 11.09619,6.86645 5.65796,0 8.844,-4.1748 3.18603,-4.22974 4.1748,-12.96387 z"
         style="font-style:normal;font-variant:normal;font-weight:800;font-stretch:normal;font-size:112.5px;line-height:100%;font-family:'TeleGrotesk Headline Ultra';-inkscape-font-specification:'TeleGrotesk Headline Ultra Ultra-Bold';letter-spacing:0px;fill:#e20074;fill-opacity:1;stroke:none;stroke-opacity:1"
         id="path4157" />
      <path
         d="m 662.95609,806.86359 q 13.34838,0 21.97265,9.66797 9.83277,10.93139 9.83277,29.55322 0,15.93017 -7.41578,26.64184 -4.39453,6.31714 -11.09619,9.66797 -5.98755,2.96631 -13.29345,2.96631 -15.93018,0 -24.88404,-12.90893 -7.25097,-10.43702 -7.25097,-26.91651 0,-17.90771 9.39331,-28.56445 8.89892,-10.10742 22.7417,-10.10742 z m -0.10987,13.73291 q -7.4707,0 -11.53564,6.97631 -4.39453,7.58057 -4.39453,18.07251 0,11.53565 4.3396,19.00635 1.81274,3.13111 5.05371,5.05371 3.24096,1.92261 6.70166,1.92261 3.2959,0 6.20727,-1.70288 2.96631,-1.75781 4.77905,-4.77905 4.66919,-7.74536 4.66919,-19.28101 0,-10.87646 -4.28466,-18.29224 -4.06494,-6.97631 -11.53565,-6.97631 z"
         style="font-style:normal;font-variant:normal;font-weight:800;font-stretch:normal;font-size:112.5px;line-height:100%;font-family:'TeleGrotesk Headline Ultra';-inkscape-font-specification:'TeleGrotesk Headline Ultra Ultra-Bold';letter-spacing:0px;fill:#e20074;fill-opacity:1;stroke:none;stroke-opacity:1"
         id="path4159" />
      <path
         d="m 390.01077,996.04816 0,-74.98169 23.12622,0 q 15.271,0 24.00513,8.12988 10.71167,9.8877 10.71167,29.11377 0,18.78662 -10.10742,29.11377 -5.49317,5.65796 -12.68921,7.36084 -5.10864,1.26343 -11.9751,1.26343 l -23.07129,0 z m 16.09497,-13.73291 7.19605,0 q 8.56933,0 12.46948,-4.06494 5.98755,-6.31714 5.98755,-19.99512 0,-11.31592 -5.05371,-17.74292 -4.44946,-5.71289 -13.84277,-5.71289 l -6.7566,0 0,47.51587 z"
         style="font-style:normal;font-variant:normal;font-weight:800;font-stretch:normal;font-size:112.5px;line-height:100%;font-family:'TeleGrotesk Headline Ultra';-inkscape-font-specification:'TeleGrotesk Headline Ultra Ultra-Bold';letter-spacing:0px;fill:#e20074;fill-opacity:1;stroke:none;stroke-opacity:1"
         id="path4161" />
      <path
         d="m 458.12601,996.04816 0,-74.98169 47.84546,0 0,13.73291 -31.75049,0 0,16.04004 29.0039,0 0,13.07373 -29.0039,0 0,18.4021 32.40967,0 0,13.73291 -48.50464,0 z"
         style="font-style:normal;font-variant:normal;font-weight:800;font-stretch:normal;font-size:112.5px;line-height:100%;font-family:'TeleGrotesk Headline Ultra';-inkscape-font-specification:'TeleGrotesk Headline Ultra Ultra-Bold';letter-spacing:0px;fill:#e20074;fill-opacity:1;stroke:none;stroke-opacity:1"
         id="path4163" />
      <path
         d="m 549.97171,996.04816 -17.90771,0 -20.48951,-74.98169 16.91895,0 12.90893,54.05273 12.90894,-54.05273 16.42456,0 -20.76416,74.98169 z"
         style="font-style:normal;font-variant:normal;font-weight:800;font-stretch:normal;font-size:112.5px;line-height:100%;font-family:'TeleGrotesk Headline Ultra';-inkscape-font-specification:'TeleGrotesk Headline Ultra Ultra-Bold';letter-spacing:0px;fill:#e20074;fill-opacity:1;stroke:none;stroke-opacity:1"
         id="path4165" />
      <path
         d="m 577.43753,996.04816 0,-74.98169 47.84546,0 0,13.73291 -31.75049,0 0,16.04004 29.00391,0 0,13.07373 -29.00391,0 0,18.4021 32.40967,0 0,13.73291 -48.50464,0 z"
         style="font-style:normal;font-variant:normal;font-weight:800;font-stretch:normal;font-size:112.5px;line-height:100%;font-family:'TeleGrotesk Headline Ultra';-inkscape-font-specification:'TeleGrotesk Headline Ultra Ultra-Bold';letter-spacing:0px;fill:#e20074;fill-opacity:1;stroke:none;stroke-opacity:1"
         id="path4167" />
      <path
         d="m 636.98343,996.04816 0,-74.98169 16.09497,0 0,61.02905 29.44336,0 0,13.95264 -45.53833,0 z"
         style="font-style:normal;font-variant:normal;font-weight:800;font-stretch:normal;font-size:112.5px;line-height:100%;font-family:'TeleGrotesk Headline Ultra';-inkscape-font-specification:'TeleGrotesk Headline Ultra Ultra-Bold';letter-spacing:0px;fill:#e20074;fill-opacity:1;stroke:none;stroke-opacity:1"
         id="path4169" />
      <path
         d="m 721.79788,919.36359 q 13.34839,0 21.97266,9.66797 9.83276,10.93139 9.83276,29.55322 0,15.93017 -7.41577,26.64184 -4.39453,6.31714 -11.09619,9.66797 -5.98755,2.96631 -13.29346,2.96631 -15.93017,0 -24.88403,-12.90893 -7.25098,-10.43702 -7.25098,-26.91651 0,-17.90771 9.39331,-28.56445 8.89893,-10.10742 22.7417,-10.10742 z m -0.10986,13.73291 q -7.4707,0 -11.53565,6.97631 -4.39453,7.58057 -4.39453,18.07251 0,11.53565 4.3396,19.00635 1.81275,3.13111 5.05371,5.05371 3.24097,1.92261 6.70166,1.92261 3.2959,0 6.20728,-1.70288 2.96631,-1.75781 4.77905,-4.77905 4.66919,-7.74536 4.66919,-19.28101 0,-10.87646 -4.28467,-18.29224 -4.06494,-6.97631 -11.53564,-6.97631 z"
         style="font-style:normal;font-variant:normal;font-weight:800;font-stretch:normal;font-size:112.5px;line-height:100%;font-family:'TeleGrotesk Headline Ultra';-inkscape-font-specification:'TeleGrotesk Headline Ultra Ultra-Bold';letter-spacing:0px;fill:#e20074;fill-opacity:1;stroke:none;stroke-opacity:1"
         id="path4171" />
      <path
         d="m 763.76566,996.04816 0,-74.98169 23.7854,0 q 8.89892,0 13.56811,1.64795 6.86646,2.52685 10.65674,8.73413 3.24097,5.3833 3.24097,13.07373 0,12.90893 -9.17359,19.77539 -6.37207,4.83398 -18.01758,4.83398 l -7.96508,0 0,26.91651 -16.09497,0 z m 16.09497,-39.99024 7.80029,0 q 6.427,0 8.89892,-3.02124 2.36207,-2.91137 2.36207,-7.74536 0,-5.49316 -3.35083,-8.29468 -2.58179,-2.19726 -8.6792,-2.19726 l -7.03125,0 0,21.25854 z"
         style="font-style:normal;font-variant:normal;font-weight:800;font-stretch:normal;font-size:112.5px;line-height:100%;font-family:'TeleGrotesk Headline Ultra';-inkscape-font-specification:'TeleGrotesk Headline Ultra Ultra-Bold';letter-spacing:0px;fill:#e20074;fill-opacity:1;stroke:none;stroke-opacity:1"
         id="path4173" />
      <path
         d="m 824.19046,996.04816 0,-74.98169 21.80786,0 13.34839,51.36108 13.0188,-51.36108 21.64307,0 0,74.98169 -15.4358,0 0,-52.13013 -12.79907,52.13013 -13.07373,0 -13.07373,-51.47095 0,51.47095 -15.43579,0 z"
         style="font-style:normal;font-variant:normal;font-weight:800;font-stretch:normal;font-size:112.5px;line-height:100%;font-family:'TeleGrotesk Headline Ultra';-inkscape-font-specification:'TeleGrotesk Headline Ultra Ultra-Bold';letter-spacing:0px;fill:#e20074;fill-opacity:1;stroke:none;stroke-opacity:1"
         id="path4175" />
      <path
         d="m 906.80765,996.04816 0,-74.98169 47.84546,0 0,13.73291 -31.75049,0 0,16.04004 29.0039,0 0,13.07373 -29.0039,0 0,18.4021 32.40967,0 0,13.73291 -48.50464,0 z"
         style="font-style:normal;font-variant:normal;font-weight:800;font-stretch:normal;font-size:112.5px;line-height:100%;font-family:'TeleGrotesk Headline Ultra';-inkscape-font-specification:'TeleGrotesk Headline Ultra Ultra-Bold';letter-spacing:0px;fill:#e20074;fill-opacity:1;stroke:none;stroke-opacity:1"
         id="path4177" />
      <path
         d="m 966.35355,996.04816 0,-74.98169 16.25976,-0.0549 23.51079,48.28491 0,-48.22998 15.4357,0 0,74.98169 -16.0949,0 -23.67556,-48.17505 0,48.17505 -15.43579,0 z"
         style="font-style:normal;font-variant:normal;font-weight:800;font-stretch:normal;font-size:112.5px;line-height:100%;font-family:'TeleGrotesk Headline Ultra';-inkscape-font-specification:'TeleGrotesk Headline Ultra Ultra-Bold';letter-spacing:0px;fill:#e20074;fill-opacity:1;stroke:none;stroke-opacity:1"
         id="path4179" />
      <path
         d="m 1048.6961,996.04816 0,-61.24878 -18.1824,0 0,-13.73291 52.5696,0 0,13.73291 -18.2923,0 0,61.24878 -16.0949,0 z"
         style="font-style:normal;font-variant:normal;font-weight:800;font-stretch:normal;font-size:112.5px;line-height:100%;font-family:'TeleGrotesk Headline Ultra';-inkscape-font-specification:'TeleGrotesk Headline Ultra Ultra-Bold';letter-spacing:0px;fill:#e20074;fill-opacity:1;stroke:none;stroke-opacity:1"
         id="path4181" />
    </g>
    <path
       style="opacity:1;fill:none;fill-opacity:1;stroke:#666666;stroke-width:13;stroke-linecap:round;stroke-linejoin:round;stroke-miterlimit:4;stroke-dasharray:none;stroke-opacity:1"
       id="path4726"
       sodipodi:type="arc"
       sodipodi:cx="877.6062"
       sodipodi:cy="-182.33252"
       sodipodi:rx="86.873116"
       sodipodi:ry="86.873116"
       sodipodi:start="0.011428074"
       sodipodi:end="5.3371394"
       d="m 964.47364,-181.33975 a 86.873116,86.873116 0 0 1 -67.23657,83.633274 86.873116,86.873116 0 0 1 -97.18978,-45.490974 86.873116,86.873116 0 0 1 21.15129,-105.20411 86.873116,86.873116 0 0 1 107.21926,-4.39454"
       transform="matrix(0,1,-1,0,0,0)"
       sodipodi:open="true" />
    <path
       style="fill:#000000;fill-opacity:1;fill-rule:evenodd;stroke:#666666;stroke-width:13;stroke-linecap:round;stroke-linejoin:miter;stroke-miterlimit:4;stroke-dasharray:none;stroke-opacity:1"
       d="m 182.21524,964.49333 90.91373,0 82.21013,0"
       id="path4728"
       inkscape:connector-curvature="0"
       sodipodi:nodetypes="ccc" />
    <path
       style="fill:none;fill-opacity:1;fill-rule:evenodd;stroke:#666666;stroke-width:13;stroke-linecap:round;stroke-linejoin:round;stroke-miterlimit:4;stroke-dasharray:none;stroke-opacity:1"
       d="m 316.68437,923.81805 c 16.66752,17.1726 41.03745,40.65864 41.03745,40.65864 l -41.03745,39.26971"
       id="path4730"
       inkscape:connector-curvature="0"
       sodipodi:nodetypes="ccc" />
    <path
       style="fill:#000000;fill-opacity:1;fill-rule:evenodd;stroke:#666666;stroke-width:13;stroke-linecap:round;stroke-linejoin:miter;stroke-miterlimit:4;stroke-dasharray:none;stroke-opacity:1"
       d="m 24.539684,964.38818 28.031563,0 45.916417,0"
       id="path4728-8"
       inkscape:connector-curvature="0"
       sodipodi:nodetypes="ccc" />
    <g
       style="font-style:normal;font-weight:normal;font-size:40px;line-height:125%;font-family:sans-serif;letter-spacing:0px;word-spacing:0px;fill:#000000;fill-opacity:1;stroke:none;stroke-width:1px;stroke-linecap:butt;stroke-linejoin:miter;stroke-opacity:1"
       id="text4765">
      <path
         d="m 43.963078,1006.7625 7.15332,0 q -0.390625,5.2978 -2.978516,8.8623 -3.540039,4.8584 -9.960937,4.8584 -6.079102,0 -9.643555,-4.1749 -4.321289,-5.1025 -4.321289,-13.208 0,-7.95894 4.174805,-12.93941 3.833007,-4.56543 9.960937,-4.56543 6.567383,0 10.229492,5.27344 2.075196,3.00293 2.34375,6.68945 l -7.080078,0.0244 q -0.317383,-1.95312 -1.049804,-3.17382 -1.5625,-2.70997 -4.541016,-2.70997 -3.320313,0 -5.078125,3.14942 -1.806641,3.27148 -1.806641,8.17871 0,4.9805 1.879883,8.3008 1.708984,3.0517 4.931641,3.0517 2.514648,0 3.930664,-1.8554 1.416015,-1.8799 1.855469,-5.7617 z"
         style="font-style:normal;font-variant:normal;font-weight:800;font-stretch:normal;font-size:50px;font-family:'TeleGrotesk Headline Ultra';-inkscape-font-specification:'TeleGrotesk Headline Ultra Ultra-Bold';fill:#666666;fill-opacity:1"
         id="path4184" />
      <path
         d="m 55.193546,1019.6775 0,-33.32521 10.278321,0 q 6.787109,0 10.668945,3.61329 4.760742,4.39453 4.760742,12.93942 0,8.3496 -4.492187,12.9395 -2.441407,2.5146 -5.639649,3.2715 -2.270508,0.5615 -5.322265,0.5615 l -10.253907,0 z m 7.153321,-6.1035 3.198242,0 q 3.808594,0 5.541992,-1.8067 2.661133,-2.8076 2.661133,-8.8867 0,-5.02928 -2.246094,-7.88573 -1.977539,-2.53906 -6.152344,-2.53906 l -3.002929,0 0,21.11819 z"
         style="font-style:normal;font-variant:normal;font-weight:800;font-stretch:normal;font-size:50px;font-family:'TeleGrotesk Headline Ultra';-inkscape-font-specification:'TeleGrotesk Headline Ultra Ultra-Bold';fill:#666666;fill-opacity:1"
         id="path4186" />
      <path
         d="m 104.02167,1006.7625 7.15332,0 q -0.39062,5.2978 -2.97851,8.8623 -3.54004,4.8584 -9.960942,4.8584 -6.079101,0 -9.643554,-4.1749 -4.321289,-5.1025 -4.321289,-13.208 0,-7.95894 4.174804,-12.93941 3.833008,-4.56543 9.960938,-4.56543 6.567383,0 10.229493,5.27344 2.07519,3.00293 2.34375,6.68945 l -7.08008,0.0244 q -0.31738,-1.95312 -1.0498,-3.17382 -1.5625,-2.70997 -4.541019,-2.70997 -3.320313,0 -5.078125,3.14942 -1.806641,3.27148 -1.806641,8.17871 0,4.9805 1.879883,8.3008 1.708984,3.0517 4.93164,3.0517 2.514652,0 3.930662,-1.8554 1.41602,-1.8799 1.85547,-5.7617 z"
         style="font-style:normal;font-variant:normal;font-weight:800;font-stretch:normal;font-size:50px;font-family:'TeleGrotesk Headline Ultra';-inkscape-font-specification:'TeleGrotesk Headline Ultra Ultra-Bold';fill:#666666;fill-opacity:1"
         id="path4188" />
      <path
         d="m 124.7248,1019.6775 0,-33.32521 10.57129,0 q 3.95507,0 6.03027,0.73243 3.05176,1.12304 4.73633,3.88183 1.44043,2.39258 1.44043,5.81055 0,5.7373 -4.07715,8.7891 -2.83203,2.1484 -8.00781,2.1484 l -3.54004,0 0,11.9629 -7.15332,0 z m 7.15332,-17.7734 3.46679,0 q 2.85645,0 3.95508,-1.3428 1.04981,-1.29397 1.04981,-3.4424 0,-2.44141 -1.48926,-3.68653 -1.14746,-0.97656 -3.85742,-0.97656 l -3.125,0 0,9.44829 z"
         style="font-style:normal;font-variant:normal;font-weight:800;font-stretch:normal;font-size:50px;font-family:'TeleGrotesk Headline Ultra';-inkscape-font-specification:'TeleGrotesk Headline Ultra Ultra-Bold';fill:#666666;fill-opacity:1"
         id="path4190" />
      <path
         d="m 151.58027,1019.6775 0,-33.32521 12.81738,0 q 5.02929,0 7.78808,2.19727 3.14942,2.51465 3.14942,7.10449 0,2.85645 -1.24512,5.00485 -1.2207,2.1241 -3.54004,3.2715 2.09961,0.7324 3.14942,2.5391 0.65918,1.0986 0.92773,2.6611 0.26855,1.5381 0.56152,5.8106 0.14649,1.9531 0.36621,2.8808 0.21973,0.9033 0.78125,1.8555 l -7.37304,0 q -0.36621,-0.8789 -0.46387,-1.5625 -0.0977,-0.708 -0.36621,-4.6387 -0.19531,-2.4658 -0.58594,-3.7597 -0.36621,-1.3184 -1.09863,-2.0752 -1.04981,-1.0498 -3.61328,-1.0498 l -4.10156,0 0,13.0859 -7.15332,0 z m 7.15332,-18.4815 3.93066,0 q 3.24707,0 4.46777,-1.36714 1.04981,-1.19629 1.04981,-3.32032 0,-2.31933 -1.29395,-3.39355 -1.29394,-1.07422 -4.07715,-1.07422 l -4.07714,0 0,9.15523 z"
         style="font-style:normal;font-variant:normal;font-weight:800;font-stretch:normal;font-size:50px;font-family:'TeleGrotesk Headline Ultra';-inkscape-font-specification:'TeleGrotesk Headline Ultra Ultra-Bold';fill:#666666;fill-opacity:1"
         id="path4192" />
      <path
         d="m 189.12909,986.35229 7.32422,0 10.54688,33.32521 -7.44629,0 -2.0752,-7.4463 -9.49707,0 -2.09961,7.4463 -7.32422,0 10.57129,-33.32521 z m 0.39063,20.48341 6.46972,0 -3.22265,-11.49903 -3.24707,11.49903 z"
         style="font-style:normal;font-variant:normal;font-weight:800;font-stretch:normal;font-size:50px;font-family:'TeleGrotesk Headline Ultra';-inkscape-font-specification:'TeleGrotesk Headline Ultra Ultra-Bold';fill:#666666;fill-opacity:1"
         id="path4194" />
      <path
         d="m 235.71112,1019.6775 -5.24902,0 0,-3.7598 q -1.97754,2.5635 -3.80859,3.5645 -1.80664,1.001 -4.44336,1.001 -6.27442,0 -9.91211,-5.0538 -3.51563,-4.8828 -3.51563,-12.2314 0,-7.37305 3.68653,-12.30469 3.95508,-5.32227 10.52246,-5.32227 5.59082,0 9.2041,4.1504 1.44043,1.68457 2.14844,3.41796 0.708,1.70899 1.00097,4.22364 l -6.958,0.0244 q -0.36622,-2.07519 -1.17188,-3.2959 -1.53809,-2.41699 -4.32129,-2.41699 -3.36914,0 -5.17578,3.19824 -1.78223,3.10059 -1.78223,8.2275 0,5.4688 2.00196,8.5694 1.83105,2.8076 5.12695,2.8076 2.70996,0 4.29688,-1.9287 1.61132,-1.9287 1.87988,-5.4688 l -5.98145,0 0,-5.3955 12.45117,0 0,17.9932 z"
         style="font-style:normal;font-variant:normal;font-weight:800;font-stretch:normal;font-size:50px;font-family:'TeleGrotesk Headline Ultra';-inkscape-font-specification:'TeleGrotesk Headline Ultra Ultra-Bold';fill:#666666;fill-opacity:1"
         id="path4196" />
      <path
         d="m 240.61835,986.35229 6.86035,0 0,19.40921 q 0,4.7607 1.31836,6.6406 1.41602,1.9775 4.34571,1.9775 3.17382,0 4.32128,-2.7099 0.80567,-1.8555 0.80567,-5.9326 l 0,-19.38481 7.15332,0 0,19.01851 q 0,4.4922 -0.63477,6.8116 -1.09863,3.9795 -3.95508,6.1523 -2.83203,2.1485 -7.83691,2.1485 -7.17773,0 -10.27832,-4.834 -1.14746,-1.8067 -1.63574,-4.1504 -0.46387,-2.3438 -0.46387,-6.2256 l 0,-18.92091 z"
         style="font-style:normal;font-variant:normal;font-weight:800;font-stretch:normal;font-size:50px;font-family:'TeleGrotesk Headline Ultra';-inkscape-font-specification:'TeleGrotesk Headline Ultra Ultra-Bold';fill:#666666;fill-opacity:1"
         id="path4198" />
      <path
         d="m 270.72089,1019.6775 0,-33.32521 21.26465,0 0,6.10352 -14.11133,0 0,7.12891 12.89063,0 0,5.81058 -12.89063,0 0,8.1787 14.4043,0 0,6.1035 -21.55762,0 z"
         style="font-style:normal;font-variant:normal;font-weight:800;font-stretch:normal;font-size:50px;font-family:'TeleGrotesk Headline Ultra';-inkscape-font-specification:'TeleGrotesk Headline Ultra Ultra-Bold';fill:#666666;fill-opacity:1"
         id="path4200" />
    </g>
    <g
       style="fill:#e20074;fill-opacity:1"
       transform="matrix(1.0755451,0,0,1.0755451,51.72019,-61.148054)"
       id="g4773">
      <g
         style="fill:#e20074;fill-opacity:1"
         id="g4733"
         transform="matrix(1.25,0,0,-1.25,321.90952,531.1446)" />
      <g
         style="fill:#e20074;fill-opacity:1"
         transform="matrix(0.32927743,0,0,0.32927743,21.234612,664.28316)"
         id="g4780">
        <path
           inkscape:connector-curvature="0"
           id="path4723"
           style="fill:#e20074;fill-opacity:1;fill-rule:evenodd;stroke:none"
           d="m 211.9214,670.20572 45.70375,0 0,-45.69625 -45.70375,0 0,45.69625 z" />
        <path
           transform="matrix(1.25,0,0,-1.25,321.90952,531.1446)"
           inkscape:connector-curvature="0"
           id="path4735"
           style="fill:#e20074;fill-opacity:1;fill-rule:evenodd;stroke:none"
           d="m 0,0 c 29.772,-0.523 47.531,-20.367 50.141,-56.667 l 9.668,1.567 -1.829,63.721 -144.157,0 -1.829,-63.721 9.665,-1.567 c 2.612,36.3 20.109,56.144 50.14,56.667 l 0,-133.441 c 0,-24.292 -4.179,-28.212 -30.294,-28.465 l 0,-10.186 88.789,0 0,10.186 C 4.18,-161.653 0,-157.733 0,-133.441 L 0,0 Z" />
        <path
           inkscape:connector-curvature="0"
           id="path4737"
           style="fill:#e20074;fill-opacity:1;fill-rule:evenodd;stroke:none"
           d="m 350.57765,670.20572 45.7025,0 0,-45.69625 -45.7025,0 0,45.69625 z" />
      </g>
    </g>
  </g>
</svg>
