<?xml version="1.0" encoding="UTF-8" standalone="no"?>
<!-- Created with Inkscape (http://www.inkscape.org/) -->

<svg
   xmlns:dc="http://purl.org/dc/elements/1.1/"
   xmlns:cc="http://creativecommons.org/ns#"
   xmlns:rdf="http://www.w3.org/1999/02/22-rdf-syntax-ns#"
   xmlns:svg="http://www.w3.org/2000/svg"
   xmlns="http://www.w3.org/2000/svg"
   xmlns:sodipodi="http://sodipodi.sourceforge.net/DTD/sodipodi-0.dtd"
   xmlns:inkscape="http://www.inkscape.org/namespaces/inkscape"
   width="370"
   height="260"
   viewBox="0 0 370 259.99999"
   id="svg4174"
   version="1.1"
   inkscape:version="0.91 r13725"
   inkscape:export-filename="C:\Users\Alufoil\Pictures\TELCO logo\cdcp_mini_pcrf.png"
   inkscape:export-xdpi="90"
   inkscape:export-ydpi="90"
   sodipodi:docname="cdcp_mini_white_splines.svg">
  <defs
     id="defs4176" />
  <sodipodi:namedview
     id="base"
     pagecolor="#ffffff"
     bordercolor="#666666"
     borderopacity="1.0"
     inkscape:pageopacity="1"
     inkscape:pageshadow="2"
     inkscape:zoom="1.979899"
     inkscape:cx="22.204291"
     inkscape:cy="132.02539"
     inkscape:document-units="px"
     inkscape:current-layer="g6531"
     showgrid="false"
     showguides="true"
     inkscape:guide-bbox="true"
     inkscape:window-width="1920"
     inkscape:window-height="1017"
     inkscape:window-x="-8"
     inkscape:window-y="-8"
     inkscape:window-maximized="1"
     units="px" />
  <metadata
     id="metadata4179">
    <rdf:RDF>
      <cc:Work
         rdf:about="">
        <dc:format>image/svg+xml</dc:format>
        <dc:type
           rdf:resource="http://purl.org/dc/dcmitype/StillImage" />
        <dc:title />
      </cc:Work>
    </rdf:RDF>
  </metadata>
  <g
     inkscape:label="Vrstva 1"
     inkscape:groupmode="layer"
     id="layer1"
     transform="translate(0,-792.36222)">
    <g
       id="g6531"
       transform="translate(1.5784863,-3.1617113)">
      <path
         sodipodi:open="true"
         transform="matrix(0,1,-1,0,0,0)"
         d="m 989.41017,-173.67695 a 86.873116,86.873116 0 0 1 -67.23658,83.63327 86.873116,86.873116 0 0 1 -97.18978,-45.49098 86.873116,86.873116 0 0 1 21.15129,-105.20411 86.873116,86.873116 0 0 1 107.21926,-4.39453"
         sodipodi:end="5.3371394"
         sodipodi:start="0.011428074"
         sodipodi:ry="86.873116"
         sodipodi:rx="86.873116"
         sodipodi:cy="-174.66972"
         sodipodi:cx="902.54272"
         sodipodi:type="arc"
         id="path4726"
         style="opacity:1;fill:none;fill-opacity:1;stroke:#ffffff;stroke-width:13;stroke-linecap:round;stroke-linejoin:round;stroke-miterlimit:4;stroke-dasharray:none;stroke-opacity:1" />
      <path
         sodipodi:nodetypes="ccc"
         inkscape:connector-curvature="0"
         id="path4728"
         d="m 174.55243,989.42989 90.91373,0 82.21013,0"
         style="fill:#ffffff;fill-opacity:1;fill-rule:evenodd;stroke:#ffffff;stroke-width:13;stroke-linecap:round;stroke-linejoin:miter;stroke-miterlimit:4;stroke-dasharray:none;stroke-opacity:1" />
      <path
         sodipodi:nodetypes="ccc"
         inkscape:connector-curvature="0"
         id="path4730"
         d="m 309.02156,948.75461 c 16.66752,17.1726 41.03745,40.65864 41.03745,40.65864 l -41.03745,39.26965"
         style="fill:#ffffff;fill-opacity:1;fill-rule:evenodd;stroke:#ffffff;stroke-width:13;stroke-linecap:round;stroke-linejoin:round;stroke-miterlimit:4;stroke-dasharray:none;stroke-opacity:1" />
      <path
         sodipodi:nodetypes="ccc"
         inkscape:connector-curvature="0"
         id="path4728-8"
         d="m 16.876882,989.32474 28.031563,0 45.916417,0"
         style="fill:#ffffff;fill-opacity:1;fill-rule:evenodd;stroke:#ffffff;stroke-width:13;stroke-linecap:round;stroke-linejoin:miter;stroke-miterlimit:4;stroke-dasharray:none;stroke-opacity:1" />
      <flowRoot
         xml:space="preserve"
         id="flowRoot6563"
         style="fill:black;stroke:none;stroke-opacity:1;stroke-width:1px;stroke-linejoin:miter;stroke-linecap:butt;fill-opacity:1;font-family:sans-serif;font-style:normal;font-weight:normal;font-size:40px;line-height:125%;letter-spacing:0px;word-spacing:0px"><flowRegion
           id="flowRegion6565"><rect
             id="rect6567"
             width="87.14286"
             height="154.28572"
             x="412.14285"
             y="47.857143" /></flowRegion><flowPara
           id="flowPara6569" /></flowRoot>      <flowRoot
         xml:space="preserve"
         id="flowRoot7188"
         style="fill:black;stroke:none;stroke-opacity:1;stroke-width:1px;stroke-linejoin:miter;stroke-linecap:butt;fill-opacity:1;font-family:sans-serif;font-style:normal;font-weight:normal;font-size:40px;line-height:125%;letter-spacing:0px;word-spacing:0px"><flowRegion
           id="flowRegion7190"><rect
             id="rect7192"
             width="43.57143"
             height="59.285713"
             x="11.428572"
             y="35.714287" /></flowRegion><flowPara
           id="flowPara7194" /></flowRoot>      <g
         style="font-style:normal;font-weight:normal;font-size:40px;line-height:125%;font-family:sans-serif;letter-spacing:0px;word-spacing:0px;fill:#ffffff;fill-opacity:1;stroke:#ffffff;stroke-width:1px;stroke-linecap:butt;stroke-linejoin:miter;stroke-opacity:1"
         id="text4765">
        <path
           d="m 42.710716,1031.3049 7.153321,0 q -0.390625,5.2979 -2.978516,8.8623 -3.540039,4.8584 -9.960938,4.8584 -6.079101,0 -9.643554,-4.1748 -4.321289,-5.1025 -4.321289,-13.208 0,-7.959 4.174804,-12.9394 3.833008,-4.5655 9.960938,-4.5655 6.567383,0 10.229492,5.2735 2.075195,3.0029 2.34375,6.6894 l -7.080078,0.024 q -0.317383,-1.9531 -1.049805,-3.1738 -1.5625,-2.7099 -4.541015,-2.7099 -3.320313,0 -5.078125,3.1494 -1.806641,3.2715 -1.806641,8.1787 0,4.9804 1.879883,8.3008 1.708984,3.0517 4.93164,3.0517 2.514649,0 3.930664,-1.8554 1.416016,-1.8799 1.855469,-5.7618 z"
           style="font-style:normal;font-variant:normal;font-weight:800;font-stretch:normal;font-size:50px;font-family:'TeleGrotesk Headline Ultra';-inkscape-font-specification:'TeleGrotesk Headline Ultra Ultra-Bold';fill:#ffffff;fill-opacity:1;stroke:#ffffff"
           id="path4166" />
        <path
           d="m 53.941185,1044.22 0,-33.3252 10.27832,0 q 6.78711,0 10.668946,3.6133 4.760742,4.3945 4.760742,12.9394 0,8.3496 -4.492188,12.9395 -2.441406,2.5146 -5.639648,3.2714 -2.270508,0.5616 -5.322266,0.5616 l -10.253906,0 z m 7.15332,-6.1035 3.198242,0 q 3.808594,0 5.541993,-1.8067 2.661132,-2.8076 2.661132,-8.8867 0,-5.0293 -2.246093,-7.8857 -1.977539,-2.5391 -6.152344,-2.5391 l -3.00293,0 0,21.1182 z"
           style="font-style:normal;font-variant:normal;font-weight:800;font-stretch:normal;font-size:50px;font-family:'TeleGrotesk Headline Ultra';-inkscape-font-specification:'TeleGrotesk Headline Ultra Ultra-Bold';fill:#ffffff;fill-opacity:1;stroke:#ffffff"
           id="path4168" />
        <path
           d="m 102.76931,1031.3049 7.15332,0 q -0.39062,5.2979 -2.97852,8.8623 -3.54003,4.8584 -9.960933,4.8584 -6.079101,0 -9.643555,-4.1748 -4.321289,-5.1025 -4.321289,-13.208 0,-7.959 4.174805,-12.9394 3.833008,-4.5655 9.960938,-4.5655 6.567384,0 10.229494,5.2735 2.07519,3.0029 2.34375,6.6894 l -7.08008,0.024 q -0.31738,-1.9531 -1.04981,-3.1738 -1.5625,-2.7099 -4.541011,-2.7099 -3.320312,0 -5.078125,3.1494 -1.80664,3.2715 -1.80664,8.1787 0,4.9804 1.879883,8.3008 1.708984,3.0517 4.93164,3.0517 2.514649,0 3.930663,-1.8554 1.41602,-1.8799 1.85547,-5.7618 z"
           style="font-style:normal;font-variant:normal;font-weight:800;font-stretch:normal;font-size:50px;font-family:'TeleGrotesk Headline Ultra';-inkscape-font-specification:'TeleGrotesk Headline Ultra Ultra-Bold';fill:#ffffff;fill-opacity:1;stroke:#ffffff"
           id="path4170" />
        <path
           d="m 123.47243,1044.22 0,-33.3252 10.57129,0 q 3.95508,0 6.03028,0.7324 3.05176,1.123 4.73633,3.8818 1.44043,2.3926 1.44043,5.8106 0,5.7373 -4.07715,8.789 -2.83203,2.1485 -8.00782,2.1485 l -3.54003,0 0,11.9629 -7.15333,0 z m 7.15333,-17.7735 3.46679,0 q 2.85645,0 3.95508,-1.3427 1.0498,-1.294 1.0498,-3.4424 0,-2.4414 -1.48925,-3.6865 -1.14746,-0.9766 -3.85742,-0.9766 l -3.125,0 0,9.4482 z"
           style="font-style:normal;font-variant:normal;font-weight:800;font-stretch:normal;font-size:50px;font-family:'TeleGrotesk Headline Ultra';-inkscape-font-specification:'TeleGrotesk Headline Ultra Ultra-Bold';fill:#ffffff;fill-opacity:1;stroke:#ffffff"
           id="path4172" />
        <path
           d="m 150.3279,1044.22 0,-33.3252 12.81739,0 q 5.02929,0 7.78808,2.1972 3.14942,2.5147 3.14942,7.1045 0,2.8565 -1.24512,5.0049 -1.2207,2.124 -3.54004,3.2715 2.09961,0.7324 3.14941,2.5391 0.65918,1.0986 0.92774,2.6611 0.26855,1.5381 0.56152,5.8105 0.14649,1.9532 0.36621,2.8809 0.21973,0.9033 0.78125,1.8555 l -7.37304,0 q -0.36621,-0.8789 -0.46387,-1.5625 -0.0977,-0.708 -0.36621,-4.6387 -0.19531,-2.4658 -0.58594,-3.7598 -0.36621,-1.3183 -1.09863,-2.0752 -1.04981,-1.0498 -3.61328,-1.0498 l -4.10157,0 0,13.086 -7.15332,0 z m 7.15332,-18.4815 3.93067,0 q 3.24707,0 4.46777,-1.3672 1.04981,-1.1963 1.04981,-3.3203 0,-2.3193 -1.29395,-3.3935 -1.29394,-1.0742 -4.07715,-1.0742 l -4.07715,0 0,9.1552 z"
           style="font-style:normal;font-variant:normal;font-weight:800;font-stretch:normal;font-size:50px;font-family:'TeleGrotesk Headline Ultra';-inkscape-font-specification:'TeleGrotesk Headline Ultra Ultra-Bold';fill:#ffffff;fill-opacity:1;stroke:#ffffff"
           id="path4174" />
        <path
           d="m 187.87673,1010.8948 7.32422,0 10.54688,33.3252 -7.44629,0 -2.0752,-7.4463 -9.49707,0 -2.09961,7.4463 -7.32422,0 10.57129,-33.3252 z m 0.39063,20.4834 6.46972,0 -3.22265,-11.499 -3.24707,11.499 z"
           style="font-style:normal;font-variant:normal;font-weight:800;font-stretch:normal;font-size:50px;font-family:'TeleGrotesk Headline Ultra';-inkscape-font-specification:'TeleGrotesk Headline Ultra Ultra-Bold';fill:#ffffff;fill-opacity:1;stroke:#ffffff"
           id="path4176" />
        <path
           d="m 234.45876,1044.22 -5.24902,0 0,-3.7598 q -1.97754,2.5635 -3.80859,3.5645 -1.80664,1.0009 -4.44336,1.0009 -6.27442,0 -9.91211,-5.0537 -3.51563,-4.8828 -3.51563,-12.2314 0,-7.3731 3.68653,-12.3047 3.95507,-5.3223 10.52246,-5.3223 5.59082,0 9.2041,4.1504 1.44043,1.6846 2.14844,3.418 0.708,1.709 1.00097,4.2236 l -6.95801,0.024 q -0.36621,-2.0752 -1.17187,-3.2959 -1.53809,-2.417 -4.32129,-2.417 -3.36914,0 -5.17578,3.1983 -1.78223,3.1006 -1.78223,8.2275 0,5.4688 2.00196,8.5694 1.83105,2.8076 5.12695,2.8076 2.70996,0 4.29687,-1.9287 1.61133,-1.9287 1.87989,-5.4688 l -5.98145,0 0,-5.3955 12.45117,0 0,17.9932 z"
           style="font-style:normal;font-variant:normal;font-weight:800;font-stretch:normal;font-size:50px;font-family:'TeleGrotesk Headline Ultra';-inkscape-font-specification:'TeleGrotesk Headline Ultra Ultra-Bold';fill:#ffffff;fill-opacity:1;stroke:#ffffff"
           id="path4178" />
        <path
           d="m 239.36599,1010.8948 6.86035,0 0,19.4092 q 0,4.7607 1.31836,6.6406 1.41602,1.9775 4.3457,1.9775 3.17383,0 4.32129,-2.7099 0.80567,-1.8555 0.80567,-5.9327 l 0,-19.3847 7.15332,0 0,19.0185 q 0,4.4922 -0.63477,6.8116 -1.09863,3.9794 -3.95508,6.1523 -2.83203,2.1484 -7.83691,2.1484 -7.17774,0 -10.27832,-4.8339 -1.14746,-1.8067 -1.63574,-4.1504 -0.46387,-2.3438 -0.46387,-6.2256 l 0,-18.9209 z"
           style="font-style:normal;font-variant:normal;font-weight:800;font-stretch:normal;font-size:50px;font-family:'TeleGrotesk Headline Ultra';-inkscape-font-specification:'TeleGrotesk Headline Ultra Ultra-Bold';fill:#ffffff;fill-opacity:1;stroke:#ffffff"
           id="path4180" />
        <path
           d="m 269.46853,1044.22 0,-33.3252 21.26465,0 0,6.1035 -14.11133,0 0,7.1289 12.89062,0 0,5.8105 -12.89062,0 0,8.1788 14.4043,0 0,6.1035 -21.55762,0 z"
           style="font-style:normal;font-variant:normal;font-weight:800;font-stretch:normal;font-size:50px;font-family:'TeleGrotesk Headline Ultra';-inkscape-font-specification:'TeleGrotesk Headline Ultra Ultra-Bold';fill:#ffffff;fill-opacity:1;stroke:#ffffff"
           id="path4182" />
      </g>
      <g
         style="fill:#ffffff;fill-opacity:1;stroke:#ffffff"
         transform="matrix(1.0755451,0,0,1.0755451,44.057393,-36.211537)"
         id="g4773">
        <g
           style="fill:#ffffff;fill-opacity:1;stroke:#ffffff"
           id="g4733"
           transform="matrix(1.25,0,0,-1.25,321.90952,531.1446)" />
        <g
           style="fill:#ffffff;fill-opacity:1;stroke:#ffffff"
           transform="matrix(0.32927743,0,0,0.32927743,21.234612,664.28316)"
           id="g4780">
          <path
             inkscape:connector-curvature="0"
             id="path4723"
             style="fill:#ffffff;fill-opacity:1;fill-rule:evenodd;stroke:#ffffff"
             d="m 211.9214,670.20572 45.70375,0 0,-45.69625 -45.70375,0 0,45.69625 z" />
          <path
             transform="matrix(1.25,0,0,-1.25,321.90952,531.1446)"
             inkscape:connector-curvature="0"
             id="path4735"
             style="fill:#ffffff;fill-opacity:1;fill-rule:evenodd;stroke:#ffffff"
             d="m 0,0 c 29.772,-0.523 47.531,-20.367 50.141,-56.667 l 9.668,1.567 -1.829,63.721 -144.157,0 -1.829,-63.721 9.665,-1.567 c 2.612,36.3 20.109,56.144 50.14,56.667 l 0,-133.441 c 0,-24.292 -4.179,-28.212 -30.294,-28.465 l 0,-10.186 88.789,0 0,10.186 C 4.18,-161.653 0,-157.733 0,-133.441 L 0,0 Z" />
          <path
             inkscape:connector-curvature="0"
             id="path4737"
             style="fill:#ffffff;fill-opacity:1;fill-rule:evenodd;stroke:#ffffff"
             d="m 350.57765,670.20572 45.7025,0 0,-45.69625 -45.7025,0 0,45.69625 z" />
        </g>
      </g>
    </g>
  </g>
</svg>
